<svg xmlns="http://www.w3.org/2000/svg" viewBox="0 0 32.27 32.26"><title>Asset 5</title><g id="Layer_2" data-name="Layer 2"><g id="Layer_1-2" data-name="Layer 1"><path d="M32.27,16.14A16.14,16.14,0,1,1,16.14,0,16.12,16.12,0,0,1,32.27,16.14Zm-20.9-3.51v3.54h2.16V26.54H17.7V16.12h2.89c.11-1.17.21-2.32.32-3.48h-3c-.11,0-.21,0-.21-.15,0-.75,0-1.51,0-2.26,0-.5.28-.72.78-.73h2.39V5.88h-.15c-.93,0-1.87,0-2.81,0A9.79,9.79,0,0,0,16.4,6a3.17,3.17,0,0,0-2.79,2.89,17.74,17.74,0,0,0-.08,2.19c0,.5,0,1,0,1.52Z"/></g></g></svg>