<svg xmlns="http://www.w3.org/2000/svg" viewBox="0 0 32.18 32.34"><title>Asset 4</title><g id="Layer_2" data-name="Layer 2"><g id="Layer_1-2" data-name="Layer 1"><path d="M32.18,16.51c-.06,2.33-.08,4.66-.2,7a9,9,0,0,1-2.82,6.39,8.53,8.53,0,0,1-5.07,2.21c-1.51.15-3,.21-4.55.22-2.82,0-5.65,0-8.47,0A22.53,22.53,0,0,1,7,31.9,8.32,8.32,0,0,1,.24,24.31C.07,22.74,0,21.14,0,19.56q0-4.23,0-8.45A16.93,16.93,0,0,1,.55,6.46,8.15,8.15,0,0,1,7.46.34,36.13,36.13,0,0,1,12.66,0c2.8,0,5.6,0,8.4,0a16.56,16.56,0,0,1,4.8.56,8.12,8.12,0,0,1,5.93,6.91,45.33,45.33,0,0,1,.33,5.35c.05,1.21,0,2.43,0,3.64ZM2.86,16.17h.06c0,1.3,0,2.61,0,3.91s.07,2.6.2,3.9a5.47,5.47,0,0,0,4.8,5.13,31.07,31.07,0,0,0,4.2.27c2.62,0,5.23,0,7.85,0a37.84,37.84,0,0,0,3.84-.21,5.45,5.45,0,0,0,5.11-4.86,31.26,31.26,0,0,0,.27-4.22c0-2.91,0-5.81,0-8.72a23.23,23.23,0,0,0-.26-3.44A5.28,5.28,0,0,0,25,3.4a9,9,0,0,0-2.18-.35Q17.39,3,12,3a34.34,34.34,0,0,0-3.65.2A5.51,5.51,0,0,0,3.89,5.93,7.34,7.34,0,0,0,3,9.36C3,11.63,2.91,13.9,2.86,16.17Z"/><path d="M16.07,24.48a8.31,8.31,0,1,1,8.25-8.36A8.29,8.29,0,0,1,16.07,24.48Zm0-2.94a5.37,5.37,0,1,0-5.31-5.43A5.34,5.34,0,0,0,16,21.54Z"/><path d="M24.63,9.49a1.95,1.95,0,0,1,0-3.89,1.95,1.95,0,0,1,0,3.89Z"/></g></g></svg>